<svg width="203" height="44" viewBox="0 0 203 44" fill="none" xmlns="http://www.w3.org/2000/svg">
<g clip-path="url(#clip0_2496_432)">
<path d="M19.8086 0.509487C19.3976 0.857779 17.1418 2.77162 14.3182 5.1669C9.15679 9.54504 2.09849 15.5315 0.943411 16.5074L0.823701 16.6082C0.807969 16.6216 0.792186 16.6354 0.776665 16.6491C0.766444 16.658 0.756488 16.6672 0.746529 16.6765C0.241214 17.1453 0.0728269 17.7669 0.0234078 18.2282C0.021342 18.2629 0.0206566 18.2979 0.0206566 18.3329V40.2252C0.0206566 40.2999 0.0227216 40.3734 0.0271709 40.447C0.141741 42.4264 1.78248 43.9964 3.78959 43.9964H38.4603C40.5419 43.9964 42.2294 42.3079 42.2294 40.2252V18.3329C42.2294 18.2979 42.2286 18.2629 42.2266 18.2282C42.1806 17.7982 42.0308 17.2288 41.601 16.7736C41.5878 16.7593 41.5736 16.7452 41.5596 16.7311C41.5414 16.7126 41.5227 16.6944 41.5032 16.6765C41.4933 16.6672 41.4834 16.658 41.473 16.6491C41.4579 16.6354 41.4421 16.6216 41.4262 16.6082L41.3066 16.5074L41.2482 16.4582C41.2275 16.4407 41.2057 16.4222 41.1822 16.4026C39.7165 15.1626 32.9333 9.4095 27.9317 5.1669C25.1082 2.77162 22.8522 0.85799 22.4414 0.509487C22.0092 0.142861 21.5727 0.0206989 21.1827 0.020752C20.4026 0.020805 19.8086 0.509487 19.8086 0.509487Z" fill="url(#paint0_radial_2496_432)"/>
<path d="M42.2296 18.3323V29.107C42.2296 30.3512 41.2218 31.3595 39.9783 31.3595H30.4113C29.1682 31.3595 28.1603 30.3512 28.1603 29.107V18.3323C28.1603 17.6667 28.4543 17.0356 28.9634 16.6076L33.7467 12.5868C34.584 11.8828 35.8057 11.8828 36.643 12.5868L41.3068 16.5067L41.4267 16.6076C41.4426 16.621 41.4581 16.6347 41.4736 16.6485C41.4839 16.6574 41.4939 16.6666 41.5038 16.6759C41.5233 16.6938 41.5419 16.7121 41.5602 16.7304C41.9618 17.1273 42.201 17.6614 42.2268 18.2276C42.2292 18.2623 42.2296 18.2973 42.2296 18.3323Z" fill="#96CCF0"/>
<path d="M25.9076 35.6841H16.3406C15.0973 35.6841 14.0894 34.6757 14.0894 33.4316V22.6567C14.0894 21.9913 14.3834 21.36 14.8925 20.9321L19.676 16.9112C20.5133 16.2073 21.735 16.2073 22.5723 16.9112L27.3557 20.9321C27.8649 21.36 28.1589 21.9913 28.1589 22.6567V33.4316C28.1589 34.6757 27.151 35.6841 25.9076 35.6841Z" fill="#96CCF0"/>
<path d="M14.0909 33.1899V43.965C14.0909 43.9753 14.0909 43.9856 14.0906 43.996H3.79051C1.78339 43.996 0.142654 42.426 0.0280308 40.4466C0.0235815 40.5038 0.0215149 40.561 0.0215149 40.6187V33.1899C0.0215149 32.5247 0.315541 31.8932 0.824615 31.4652L5.60828 27.4444C6.44527 26.7409 7.6672 26.7409 8.50455 27.4444L13.2879 31.4652C13.797 31.8932 14.0909 32.5247 14.0909 33.1899Z" fill="#96CCF0"/>
<path d="M39.9785 38.7885H30.4116C29.1682 38.7885 28.1603 37.7801 28.1603 36.5361V25.7612C28.1603 25.0958 28.4543 24.4645 28.9634 24.0365L33.7469 20.0157C34.5842 19.3118 35.8059 19.3118 36.6432 20.0157L41.4265 24.0365C41.9358 24.4645 42.2298 25.0958 42.2298 25.7612V36.5361C42.2298 37.7801 41.2219 38.7885 39.9785 38.7885Z" fill="#01A0E1"/>
<path d="M25.9076 43.113H16.3406C15.0973 43.113 14.0894 42.1046 14.0894 40.8605V30.0856C14.0894 29.4202 14.3834 28.7889 14.8925 28.361L19.676 24.3401C20.5133 23.6363 21.735 23.6363 22.5723 24.3401L27.3557 28.361C27.8649 28.7889 28.1589 29.4202 28.1589 30.0856V40.8605C28.1589 42.1046 27.151 43.113 25.9076 43.113Z" fill="#01A0E1"/>
<path d="M14.0906 40.6188V43.9961H3.79014C1.78302 43.9961 0.142283 42.4261 0.0276604 40.4467C0.0736896 39.8458 0.359398 39.2854 0.824247 38.8945L5.60791 34.8737C6.4449 34.1697 7.66683 34.1697 8.50418 34.8737L13.2875 38.8945C13.7966 39.3225 14.0906 39.9535 14.0906 40.6188Z" fill="#01A0E1"/>
<path d="M42.2296 33.1899V40.2248C42.2296 42.3075 40.5424 43.996 38.4608 43.996H28.1607C28.1603 43.9856 28.1603 43.9753 28.1603 43.965V33.1899C28.1603 32.5247 28.4543 31.8932 28.9634 31.4652L29.3836 31.1121L33.7467 27.4444C34.584 26.7409 35.8057 26.7409 36.643 27.4444L41.0064 31.1117L41.4267 31.4652C41.9356 31.8932 42.2296 32.5247 42.2296 33.1899Z" fill="#1946BB"/>
<path d="M28.1596 37.5149V43.9964H14.0898V37.5149C14.0898 36.8498 14.3838 36.2182 14.8933 35.7903L15.3135 35.437L19.6766 31.7694C20.5139 31.0658 21.7355 31.0658 22.5729 31.7694L26.936 35.437L27.3563 35.7903C27.8656 36.2182 28.1596 36.8498 28.1596 37.5149Z" fill="#1946BB"/>
<path d="M35.5763 39.9438H34.8121C33.4781 39.9438 32.3967 38.8619 32.3967 37.5272V36.7627C32.3967 35.4279 33.4781 34.3459 34.8121 34.3459H35.5763C36.9103 34.3459 37.9917 35.4279 37.9917 36.7627V37.5272C37.9917 38.8619 36.9103 39.9438 35.5763 39.9438Z" fill="white"/>
<path d="M61.3848 30.8197C62.6978 32.1487 64.3464 32.8125 66.3311 32.8125C68.3155 32.8125 69.9645 32.1487 71.2774 30.8197C72.5908 29.4915 73.2474 27.8197 73.2474 25.805C73.2474 23.7903 72.5908 22.1193 71.2774 20.7903C69.9645 19.462 68.3155 18.7974 66.3311 18.7974C64.3464 18.7974 62.6978 19.462 61.3848 20.7903C60.0715 22.1193 59.4148 23.7903 59.4148 25.805C59.4148 27.8197 60.0715 29.4915 61.3848 30.8197ZM73.2474 14.8558H77.9748V36.7542H73.2474V33.6008C71.4669 36.0829 68.9137 37.3235 65.5871 37.3235C62.581 37.3235 60.0127 36.2067 57.883 33.9731C55.7525 31.7394 54.6874 29.0172 54.6874 25.805C54.6874 22.564 55.7525 19.8343 57.883 17.615C60.0127 15.3964 62.581 14.2864 65.5871 14.2864C68.9137 14.2864 71.4669 15.5128 73.2474 17.9654V14.8558Z" fill="#1946BB"/>
<path d="M86.4671 18.5345C87.6632 15.8192 89.9101 14.4614 93.2082 14.4614V19.5857C91.3983 19.4694 89.8227 19.8998 88.4808 20.8777C87.1381 21.8563 86.4671 23.4693 86.4671 25.7173V36.754H81.7397V14.8557H86.4671V18.5345Z" fill="#1946BB"/>
<path d="M99.4242 30.8197C100.737 32.1487 102.385 32.8125 104.37 32.8125C106.355 32.8125 108.003 32.1487 109.317 30.8197C110.63 29.4915 111.287 27.8197 111.287 25.805C111.287 23.7903 110.63 22.1193 109.317 20.7903C108.003 19.462 106.355 18.7974 104.37 18.7974C102.385 18.7974 100.737 19.462 99.4242 20.7903C98.1108 22.1193 97.4541 23.7903 97.4541 25.805C97.4541 27.8197 98.1108 29.4915 99.4242 30.8197ZM111.287 14.8558H116.014V36.7542H111.287V33.6008C109.506 36.0829 106.953 37.3235 103.626 37.3235C100.62 37.3235 98.052 36.2067 95.9219 33.9731C93.7914 31.7394 92.7267 29.0172 92.7267 25.805C92.7267 22.564 93.7914 19.8343 95.9219 17.615C98.052 15.3964 100.62 14.2864 103.626 14.2864C106.953 14.2864 109.506 15.5128 111.287 17.9654V14.8558Z" fill="#1946BB"/>
<path d="M143.679 14.2864C146.159 14.2864 148.158 15.0898 149.676 16.6952C151.193 18.3015 151.952 20.4618 151.952 23.1772V36.7542H147.225V23.4837C147.225 21.966 146.845 20.7903 146.087 19.9581C145.328 19.126 144.292 18.7099 142.979 18.7099C141.519 18.7099 140.359 19.1916 139.499 20.1552C138.638 21.1188 138.208 22.564 138.208 24.4912V36.7542H133.48V23.4837C133.48 21.966 133.122 20.7903 132.408 19.9581C131.692 19.126 130.679 18.7099 129.365 18.7099C127.935 18.7099 126.768 19.1992 125.863 20.1771C124.958 21.1557 124.506 22.5934 124.506 24.4912V36.7542H119.779V14.8558H124.506V17.4836C125.907 15.3526 127.993 14.2864 130.766 14.2864C133.568 14.2864 135.639 15.4402 136.982 17.7464C138.441 15.4402 140.673 14.2864 143.679 14.2864Z" fill="#1946BB"/>
<path d="M161.977 30.8197C163.29 32.1487 164.938 32.8125 166.923 32.8125C168.907 32.8125 170.556 32.1487 171.869 30.8197C173.183 29.4914 173.839 27.8196 173.839 25.805C173.839 23.7903 173.183 22.1192 171.869 20.7902C170.556 19.462 168.907 18.7974 166.923 18.7974C164.938 18.7974 163.29 19.462 161.977 20.7902C160.663 22.1192 160.007 23.7903 160.007 25.805C160.007 27.8196 160.663 29.4914 161.977 30.8197ZM167.667 14.2864C170.672 14.2864 173.241 15.3964 175.371 17.615C177.501 19.8343 178.567 22.564 178.567 25.805C178.567 29.0172 177.501 31.7394 175.371 33.9731C173.241 36.2067 170.672 37.3235 167.667 37.3235C164.34 37.3235 161.787 36.0829 160.007 33.6008V36.7541H155.279V6.09644H160.007V17.9653C161.787 15.5128 164.34 14.2864 167.667 14.2864Z" fill="#1946BB"/>
<path d="M186.577 30.7541C187.89 32.0679 189.51 32.7249 191.436 32.7249C193.362 32.7249 194.982 32.0679 196.295 30.7541C197.608 29.4402 198.265 27.791 198.265 25.805C198.265 23.8198 197.608 22.1698 196.295 20.8559C194.982 19.5421 193.362 18.8851 191.436 18.8851C189.51 18.8851 187.89 19.5421 186.577 20.8559C185.264 22.1698 184.607 23.8198 184.607 25.805C184.607 27.791 185.264 29.4402 186.577 30.7541ZM191.436 37.3235C188.226 37.3235 185.497 36.2142 183.25 33.9949C181.003 31.7765 179.88 29.0459 179.88 25.805C179.88 22.564 181.003 19.8343 183.25 17.615C185.497 15.3964 188.226 14.2864 191.436 14.2864C194.675 14.2864 197.411 15.3964 199.644 17.615C201.876 19.8343 202.992 22.564 202.992 25.805C202.992 29.0459 201.876 31.7765 199.644 33.9949C197.411 36.2142 194.675 37.3235 191.436 37.3235Z" fill="#1946BB"/>
</g>
<defs>
<radialGradient id="paint0_radial_2496_432" cx="0" cy="0" r="1" gradientUnits="userSpaceOnUse" gradientTransform="translate(20.7177 24.6587) rotate(-91.5643) scale(21.5427 21.5313)">
<stop stop-color="#97D4F1"/>
<stop offset="0.277733" stop-color="#E4F3F8"/>
<stop offset="1" stop-color="#A1D9F1"/>
</radialGradient>
<clipPath id="clip0_2496_432">
<rect width="203" height="44" fill="white"/>
</clipPath>
</defs>
</svg>
