<svg width="25" height="24" viewBox="0 0 25 24" fill="none" xmlns="http://www.w3.org/2000/svg">
<path d="M23 9.00003H20C20 8.80112 19.921 8.61036 19.7803 8.4697C19.6397 8.32905 19.4489 8.25003 19.25 8.25003H13.25C13.0511 8.25003 12.8603 8.32905 12.7197 8.4697C12.579 8.61036 12.5 8.80112 12.5 9.00003H6.5V4.87503C6.5 4.57667 6.61853 4.29052 6.8295 4.07954C7.04048 3.86856 7.32663 3.75003 7.625 3.75003C7.88867 3.74896 8.14493 3.83726 8.35196 4.00054C8.559 4.16382 8.7046 4.39244 8.765 4.6491C8.8062 4.84238 8.92202 5.01159 9.08729 5.11995C9.25255 5.22831 9.45391 5.26706 9.64759 5.22778C9.84127 5.1885 10.0116 5.07436 10.1216 4.91018C10.2316 4.74599 10.2724 4.54503 10.235 4.35097C10.1077 3.75417 9.77862 3.21945 9.30326 2.8368C8.8279 2.45416 8.23523 2.24694 7.625 2.25003C6.92881 2.25003 6.26113 2.5266 5.76884 3.01888C5.27656 3.51116 5 4.17884 5 4.87503V9.00003H2C1.80109 9.00003 1.61032 9.07905 1.46967 9.2197C1.32902 9.36036 1.25 9.55112 1.25 9.75003V13.5C1.25149 14.892 1.80509 16.2265 2.78933 17.2107C3.77358 18.1949 5.10807 18.7485 6.5 18.75V20.25C6.5 20.4489 6.57902 20.6397 6.71967 20.7804C6.86032 20.921 7.05109 21 7.25 21C7.44891 21 7.63968 20.921 7.78033 20.7804C7.92098 20.6397 8 20.4489 8 20.25V18.75H17V20.25C17 20.4489 17.079 20.6397 17.2197 20.7804C17.3603 20.921 17.5511 21 17.75 21C17.9489 21 18.1397 20.921 18.2803 20.7804C18.421 20.6397 18.5 20.4489 18.5 20.25V18.75C19.8919 18.7485 21.2264 18.1949 22.2107 17.2107C23.1949 16.2265 23.7485 14.892 23.75 13.5V9.75003C23.75 9.55112 23.671 9.36036 23.5303 9.2197C23.3897 9.07905 23.1989 9.00003 23 9.00003ZM18.5 9.75003V12.75H14V9.75003H18.5ZM22.25 13.5C22.25 13.9925 22.153 14.4801 21.9645 14.9351C21.7761 15.3901 21.4999 15.8035 21.1516 16.1517C20.8034 16.4999 20.39 16.7761 19.9351 16.9646C19.4801 17.153 18.9925 17.25 18.5 17.25H6.5C5.50544 17.25 4.55161 16.8549 3.84835 16.1517C3.14509 15.4484 2.75 14.4946 2.75 13.5V10.5H12.5V13.5C12.5 13.6989 12.579 13.8897 12.7197 14.0304C12.8603 14.171 13.0511 14.25 13.25 14.25H19.25C19.4489 14.25 19.6397 14.171 19.7803 14.0304C19.921 13.8897 20 13.6989 20 13.5V10.5H22.25V13.5Z" fill="#0A0A0A"/>
</svg>
