<svg width="20" height="21" viewBox="0 0 20 21" fill="none" xmlns="http://www.w3.org/2000/svg">
<path d="M8.7679 2.74465C9.42906 2.01871 10.5712 2.01871 11.2324 2.74465L12.0826 3.67818C12.4166 4.04507 12.8969 4.24398 13.3926 4.22082L14.6539 4.16188C15.6346 4.11603 16.4424 4.92373 16.3966 5.90453L16.3376 7.16579C16.3144 7.66148 16.5133 8.14172 16.8802 8.47584L17.8137 9.326C18.5397 9.98717 18.5397 11.1293 17.8137 11.7905L16.8802 12.6407C16.5133 12.9748 16.3144 13.455 16.3376 13.9507L16.3966 15.212C16.4424 16.1927 15.6346 17.0005 14.6539 16.9547L13.3926 16.8957C12.8969 16.8725 12.4166 17.0714 12.0826 17.4383L11.2324 18.3718C10.5712 19.0978 9.42906 19.0978 8.7679 18.3718L7.91774 17.4383C7.58361 17.0714 7.10338 16.8725 6.60769 16.8957L5.34642 16.9547C4.36562 17.0005 3.55793 16.1927 3.60377 15.212L3.66271 13.9507C3.68588 13.455 3.48696 12.9748 3.12007 12.6407L2.18655 11.7905C1.4606 11.1293 1.4606 9.98717 2.18655 9.326L3.12007 8.47584C3.48696 8.14172 3.68588 7.66148 3.66271 7.16579L3.60377 5.90453C3.55793 4.92373 4.36562 4.11603 5.34643 4.16188L6.60769 4.22082C7.10338 4.24398 7.58361 4.04507 7.91774 3.67818L8.7679 2.74465Z" stroke="white" stroke-width="1.25"/>
<path d="M7.5 10.5583L9.16667 12.2249L12.5 8.8916" stroke="white" stroke-width="1.25" stroke-linecap="round" stroke-linejoin="round"/>
</svg>
