<svg width="67" height="68" viewBox="0 0 67 68" fill="none" xmlns="http://www.w3.org/2000/svg">
<path d="M33.5341 0.703369C36.1267 0.703527 38.6305 1.64794 40.5774 3.36004L41.0907 3.84337L43.4174 6.17004C44.0559 6.80441 44.8898 7.20488 45.7841 7.3067L46.2341 7.33337H49.5674C52.2914 7.33322 54.9123 8.37527 56.8926 10.2458C58.8729 12.1164 60.0625 14.6737 60.2174 17.3934L60.2341 18V21.3334C60.2341 22.2334 60.5407 23.11 61.0941 23.81L61.3941 24.1434L63.7174 26.47C65.6431 28.3849 66.766 30.9621 66.857 33.6763C66.9481 36.3904 66.0005 39.0371 64.2074 41.0767L63.7241 41.59L61.3974 43.9167C60.763 44.5552 60.3625 45.3891 60.2607 46.2834L60.2341 46.7334V50.0667C60.2342 52.7908 59.1922 55.4117 57.3216 57.3919C55.451 59.3722 52.8937 60.5618 50.1741 60.7167L49.5674 60.7334H46.2341C45.3353 60.7337 44.4629 61.0366 43.7574 61.5934L43.4241 61.8934L41.0974 64.2167C39.1826 66.1424 36.6053 67.2653 33.8912 67.3564C31.177 67.4474 28.5303 66.4998 26.4907 64.7067L25.9774 64.2234L23.6507 61.8967C23.0122 61.2623 22.1784 60.8619 21.2841 60.76L20.8341 60.7334H17.5007C14.7767 60.7335 12.1558 59.6915 10.1755 57.8209C8.19523 55.9503 7.00565 53.393 6.85072 50.6734L6.83405 50.0667V46.7334C6.83376 45.8346 6.53081 44.9622 5.97406 44.2567L5.67406 43.9234L3.35072 41.5967C1.42499 39.6819 0.302131 37.1046 0.211081 34.3905C0.12003 31.6763 1.06765 29.0296 2.86072 26.99L3.34406 26.4767L5.67072 24.15C6.30509 23.5115 6.70557 22.6777 6.80739 21.7834L6.83405 21.3334V18L6.85072 17.3934C6.99956 14.7782 8.10548 12.3092 9.95768 10.457C11.8099 8.60479 14.2789 7.49888 16.8941 7.35004L17.5007 7.33337H20.8341C21.7328 7.33307 22.6052 7.03013 23.3107 6.47337L23.6441 6.17337L25.9707 3.85004C26.9618 2.853 28.1403 2.06172 29.4383 1.5217C30.7363 0.981681 32.1282 0.703573 33.5341 0.703369ZM45.8574 24.9767C45.2323 24.3518 44.3846 24.0007 43.5007 24.0007C42.6168 24.0007 41.7691 24.3518 41.1441 24.9767L30.1674 35.95L25.8574 31.6434L25.5441 31.3667C24.8741 30.8487 24.032 30.6051 23.189 30.6854C22.3459 30.7657 21.565 31.1639 21.0049 31.7991C20.4448 32.4343 20.1474 33.2589 20.1733 34.1054C20.1991 34.9519 20.5462 35.7568 21.1441 36.3567L27.8107 43.0234L28.1241 43.3C28.7654 43.7975 29.5662 44.0439 30.3763 43.993C31.1864 43.9421 31.9501 43.5973 32.5241 43.0234L45.8574 29.69L46.1341 29.3767C46.6316 28.7354 46.878 27.9345 46.827 27.1244C46.7761 26.3143 46.4313 25.5507 45.8574 24.9767Z" fill="#1946BB"/>
</svg>
