<svg width="25" height="24" viewBox="0 0 25 24" fill="none" xmlns="http://www.w3.org/2000/svg">
<g clip-path="url(#clip0_2610_2265)">
<path d="M9.5 3C9.67928 2.99995 9.85528 3.0481 10.0096 3.13941C10.1639 3.23071 10.2908 3.36182 10.377 3.519L10.428 3.629L12.428 8.629C12.5086 8.83016 12.5216 9.05204 12.4651 9.26125C12.4087 9.47045 12.2858 9.65566 12.115 9.789L12.015 9.857L10.341 10.861L10.404 10.964C11.2008 12.229 12.271 13.2992 13.536 14.096L13.638 14.158L14.643 12.486C14.7544 12.3001 14.9231 12.1554 15.1239 12.0737C15.3246 11.992 15.5464 11.9777 15.756 12.033L15.871 12.072L20.871 14.072C21.0375 14.1384 21.1831 14.2484 21.2925 14.3903C21.4019 14.5323 21.4712 14.7011 21.493 14.879L21.5 15V19C21.5 20.657 20.157 22 18.44 21.998C9.861 21.477 3.022 14.638 2.5 6C2.49996 5.23479 2.79233 4.49849 3.31728 3.94174C3.84224 3.38499 4.56011 3.04989 5.324 3.005L5.5 3H9.5Z" fill="#1946BB"/>
</g>
<defs>
<clipPath id="clip0_2610_2265">
<rect width="24" height="24" fill="white" transform="translate(0.5)"/>
</clipPath>
</defs>
</svg>
