<svg width="19" height="19" viewBox="0 0 19 19" fill="none" xmlns="http://www.w3.org/2000/svg">
<path d="M9.5 1.1875C6.22213 1.1875 3.5625 3.58143 3.5625 6.53125C3.5625 11.2812 9.5 17.8125 9.5 17.8125C9.5 17.8125 15.4375 11.2812 15.4375 6.53125C15.4375 3.58143 12.7779 1.1875 9.5 1.1875ZM9.5 9.5C9.03027 9.5 8.57109 9.36071 8.18052 9.09974C7.78995 8.83877 7.48554 8.46785 7.30579 8.03387C7.12603 7.5999 7.07899 7.12237 7.17063 6.66166C7.26227 6.20096 7.48847 5.77777 7.82062 5.44562C8.15277 5.11347 8.57596 4.88727 9.03666 4.79563C9.49737 4.70399 9.9749 4.75103 10.4089 4.93079C10.8428 5.11054 11.2138 5.41495 11.4747 5.80552C11.7357 6.19609 11.875 6.65527 11.875 7.125C11.8743 7.75468 11.6239 8.35837 11.1786 8.80362C10.7334 9.24887 10.1297 9.49931 9.5 9.5Z" fill="#1946BB"/>
</svg>
