<svg width="20" height="21" viewBox="0 0 20 21" fill="none" xmlns="http://www.w3.org/2000/svg">
<path d="M10 0.5L10.324 0.505C12.9467 0.590021 15.4309 1.70254 17.2408 3.60261C19.0507 5.50268 20.0412 8.03801 19.9987 10.6618C19.9562 13.2855 18.884 15.7874 17.0136 17.6279C15.1431 19.4683 12.6241 20.4998 10 20.4998C7.3759 20.4998 4.85694 19.4683 2.98645 17.6279C1.11596 15.7874 0.0438303 13.2855 0.00131424 10.6618C-0.0412018 8.03801 0.949302 5.50268 2.75918 3.60261C4.56906 1.70254 7.05328 0.590021 9.676 0.505L10 0.5ZM10.613 5.71C10.412 5.55459 10.1594 5.48151 9.90648 5.5056C9.65355 5.52969 9.41928 5.64916 9.25125 5.83972C9.08322 6.03029 8.99402 6.27767 9.00177 6.53162C9.00953 6.78557 9.11365 7.02704 9.293 7.207L11.584 9.5H6L5.883 9.507C5.62991 9.5371 5.39786 9.66271 5.23427 9.85817C5.07068 10.0536 4.98789 10.3042 5.00283 10.5586C5.01777 10.813 5.1293 11.0522 5.31463 11.2272C5.49997 11.4021 5.74512 11.4997 6 11.5H11.584L9.293 13.793L9.21 13.887C9.05459 14.088 8.98151 14.3406 9.0056 14.5935C9.0297 14.8464 9.14916 15.0807 9.33972 15.2488C9.53029 15.4168 9.77767 15.506 10.0316 15.4982C10.2856 15.4905 10.527 15.3863 10.707 15.207L14.707 11.207L14.78 11.125L14.844 11.036L14.906 10.923L14.95 10.813L14.98 10.701L14.997 10.575L15 10.5L14.993 10.382L14.964 10.234L14.929 10.129L14.875 10.016L14.804 9.905C14.7745 9.86534 14.742 9.8279 14.707 9.793L10.707 5.793L10.613 5.71Z" fill="white"/>
</svg>
