<svg width="155" height="102" viewBox="0 0 155 102" fill="none" xmlns="http://www.w3.org/2000/svg">
<g opacity="0.32">
<path d="M155 23.0246V62.571C155 67.1375 151.299 70.8384 146.733 70.8384H111.6C107.035 70.8384 103.334 67.1375 103.334 62.571V23.0246C103.334 20.5816 104.414 18.2653 106.283 16.6944L123.849 1.93683C126.924 -0.646913 131.41 -0.646913 134.484 1.93683L151.611 16.324L152.052 16.6944C152.11 16.7434 152.167 16.7939 152.224 16.8444C152.262 16.8771 152.298 16.9111 152.335 16.945C152.406 17.0108 152.475 17.0779 152.542 17.1452C154.017 18.6017 154.895 20.5622 154.99 22.6402C154.998 22.7675 155 22.8959 155 23.0246Z" fill="#F0F0F0"/>
<path d="M95.0595 86.7118H59.9274C55.3617 86.7118 51.6602 83.0105 51.6602 78.4445V38.8972C51.6602 36.4551 52.7398 34.138 54.6095 32.5674L72.1756 17.8096C75.2503 15.2262 79.7366 15.2262 82.8116 17.8096L100.377 32.5674C102.247 34.138 103.327 36.4551 103.327 38.8972V78.4445C103.327 83.0105 99.6255 86.7118 95.0595 86.7118Z" fill="#F0F0F0"/>
<path d="M51.6663 77.5562V117.104C51.6663 117.142 51.6663 117.18 51.6652 117.218H13.8407C6.47004 117.218 0.444851 111.455 0.0239281 104.19C0.00758915 104.4 0 104.61 0 104.822V77.5562C0 75.1147 1.07973 72.7969 2.94918 71.226L20.516 56.4685C23.5896 53.8862 28.0768 53.8862 31.1518 56.4685L48.7173 71.226C50.5868 72.7969 51.6663 75.1147 51.6663 77.5562Z" fill="#F0F0F0"/>
<path d="M146.733 98.1114H111.601C107.035 98.1114 103.334 94.4101 103.334 89.8442V50.2971C103.334 47.855 104.414 45.5379 106.283 43.967L123.849 29.2095C126.924 26.6261 131.41 26.6261 134.485 29.2095L152.051 43.967C153.921 45.5379 155 47.855 155 50.2971V89.8442C155 94.4101 151.299 98.1114 146.733 98.1114Z" fill="#E1E1E1"/>
<path d="M95.0595 113.97H59.9274C55.3617 113.97 51.6602 110.269 51.6602 105.703V66.156C51.6602 63.7139 52.7398 61.3968 54.6095 59.8261L72.1756 45.0683C75.2503 42.485 79.7366 42.485 82.8116 45.0683L100.377 59.8261C102.247 61.3968 103.327 63.7139 103.327 66.156V105.703C103.327 110.269 99.6255 113.97 95.0595 113.97Z" fill="#E1E1E1"/>
<path d="M51.6659 104.818V117.214H13.8402C6.46954 117.214 0.444361 111.452 0.0234375 104.187C0.192468 101.981 1.24166 99.9243 2.9487 98.4893L20.5155 83.7318C23.5891 81.148 28.0763 81.148 31.1513 83.7318L48.7168 98.4893C50.5863 100.06 51.6659 102.376 51.6659 104.818Z" fill="#E1E1E1"/>
<path d="M155 77.5562V103.376C155 111.02 148.804 117.218 141.16 117.218H103.335C103.334 117.18 103.334 117.142 103.334 117.104V77.5562C103.334 75.1147 104.414 72.7969 106.283 71.226L107.826 69.9299L123.849 56.4685C126.924 53.8862 131.41 53.8862 134.484 56.4685L150.508 69.9286L152.052 71.226C153.92 72.7969 155 75.1147 155 77.5562Z" fill="#BBBBBB"/>
</g>
</svg>
