<svg width="20" height="20" viewBox="0 0 20 20" fill="none" xmlns="http://www.w3.org/2000/svg">
<g clip-path="url(#clip0_2910_4228)">
<path d="M20 0H0V20H20V0Z" fill="black"/>
<path d="M13.3337 9.16667H8.33366C7.50033 9.16667 6.66699 10 6.66699 10.8333V11.6667M13.3337 9.16667L11.667 7.5M13.3337 9.16667L11.667 10.8333" stroke="#1946BB" stroke-width="1.25" stroke-linecap="round" stroke-linejoin="round"/>
<path d="M1.18697 9.6465L9.6465 1.18697C9.84184 0.991713 10.1583 0.991713 10.3537 1.18697L18.8132 9.6465C19.0085 9.84184 19.0084 10.1583 18.8132 10.3537L10.3537 18.8132C10.1583 19.0085 9.84184 19.0084 9.6465 18.8132L1.18697 10.3537C0.991713 10.1583 0.991713 9.84184 1.18697 9.6465Z" stroke="#1946BB" stroke-width="1.25" stroke-linejoin="round"/>
</g>
<defs>
<clipPath id="clip0_2910_4228">
<rect width="20" height="20" fill="white"/>
</clipPath>
</defs>
</svg>
