<svg width="20" height="21" viewBox="0 0 20 21" fill="none" xmlns="http://www.w3.org/2000/svg">
<g clip-path="url(#clip0_2487_8101)">
<path d="M5.83301 8.55551C5.83301 7.96606 6.06716 7.40076 6.48396 6.98396C6.90076 6.56716 7.46606 6.33301 8.05551 6.33301H15.2772C15.569 6.33301 15.858 6.39049 16.1277 6.50219C16.3973 6.61388 16.6423 6.77758 16.8487 6.98396C17.0551 7.19034 17.2188 7.43535 17.3305 7.70499C17.4422 7.97464 17.4997 8.26364 17.4997 8.55551V15.7772C17.4997 16.069 17.4422 16.358 17.3305 16.6277C17.2188 16.8973 17.0551 17.1423 16.8487 17.3487C16.6423 17.5551 16.3973 17.7188 16.1277 17.8305C15.858 17.9422 15.569 17.9997 15.2772 17.9997H8.05551C7.76364 17.9997 7.47464 17.9422 7.20499 17.8305C6.93535 17.7188 6.69034 17.5551 6.48396 17.3487C6.27758 17.1423 6.11388 16.8973 6.00219 16.6277C5.89049 16.358 5.83301 16.069 5.83301 15.7772V8.55551Z" stroke="#0A0A0A" stroke-width="1.5" stroke-linecap="round" stroke-linejoin="round"/>
<path d="M3.34333 14.4475C3.08779 14.3018 2.87523 14.0912 2.72715 13.8371C2.57906 13.5829 2.50071 13.2942 2.5 13V4.66667C2.5 3.75 3.25 3 4.16667 3H12.5C13.125 3 13.465 3.32083 13.75 3.83333" stroke="#0A0A0A" stroke-width="1.5" stroke-linecap="round" stroke-linejoin="round"/>
</g>
<defs>
<clipPath id="clip0_2487_8101">
<rect width="20" height="20" fill="white" transform="translate(0 0.5)"/>
</clipPath>
</defs>
</svg>
