<svg width="20" height="21" viewBox="0 0 20 21" fill="none" xmlns="http://www.w3.org/2000/svg">
<g clip-path="url(#clip0_2487_8106)">
<path d="M6.66699 9.6665V13.8332" stroke="#0A0A0A" stroke-width="1.5" stroke-linecap="round" stroke-linejoin="round"/>
<path d="M6.66699 7.1665V7.17484" stroke="#0A0A0A" stroke-width="1.5" stroke-linecap="round" stroke-linejoin="round"/>
<path d="M10 13.8332V9.6665" stroke="#0A0A0A" stroke-width="1.5" stroke-linecap="round" stroke-linejoin="round"/>
<path d="M13.3333 13.8332V11.3332C13.3333 10.8911 13.1577 10.4672 12.8452 10.1547C12.5326 9.8421 12.1087 9.6665 11.6667 9.6665C11.2246 9.6665 10.8007 9.8421 10.4882 10.1547C10.1756 10.4672 10 10.8911 10 11.3332" stroke="#0A0A0A" stroke-width="1.5" stroke-linecap="round" stroke-linejoin="round"/>
<path d="M2.5 6.33333C2.5 5.44928 2.85119 4.60143 3.47631 3.97631C4.10143 3.35119 4.94928 3 5.83333 3H14.1667C15.0507 3 15.8986 3.35119 16.5237 3.97631C17.1488 4.60143 17.5 5.44928 17.5 6.33333V14.6667C17.5 15.5507 17.1488 16.3986 16.5237 17.0237C15.8986 17.6488 15.0507 18 14.1667 18H5.83333C4.94928 18 4.10143 17.6488 3.47631 17.0237C2.85119 16.3986 2.5 15.5507 2.5 14.6667V6.33333Z" stroke="#0A0A0A" stroke-width="1.5" stroke-linecap="round" stroke-linejoin="round"/>
</g>
<defs>
<clipPath id="clip0_2487_8106">
<rect width="20" height="20" fill="white" transform="translate(0 0.5)"/>
</clipPath>
</defs>
</svg>
