<svg width="32" height="32" viewBox="0 0 32 32" fill="none" xmlns="http://www.w3.org/2000/svg">
<g clip-path="url(#clip0_2485_2682)">
<path d="M6.66655 9.60013C6.66655 8.82216 6.9756 8.07605 7.5257 7.52595C8.07581 6.97584 8.82191 6.66679 9.59988 6.66679H10.9332C11.7077 6.66635 12.4507 6.3596 12.9999 5.81346L13.9332 4.88013C14.2058 4.60599 14.5299 4.38845 14.8869 4.24C15.2438 4.09156 15.6266 4.01514 16.0132 4.01514C16.3998 4.01514 16.7826 4.09156 17.1396 4.24C17.4965 4.38845 17.8206 4.60599 18.0932 4.88013L19.0266 5.81346C19.5759 6.36013 20.3199 6.66679 21.0932 6.66679H22.4265C23.2045 6.66679 23.9506 6.97584 24.5007 7.52595C25.0508 8.07605 25.3599 8.82216 25.3599 9.60013V10.9335C25.3599 11.7068 25.6666 12.4508 26.2132 13.0001L27.1466 13.9335C27.4207 14.2061 27.6382 14.5302 27.7867 14.8871C27.9351 15.2441 28.0115 15.6269 28.0115 16.0135C28.0115 16.4001 27.9351 16.7828 27.7867 17.1398C27.6382 17.4968 27.4207 17.8209 27.1466 18.0935L26.2132 19.0268C25.6671 19.576 25.3603 20.3189 25.3599 21.0935V22.4268C25.3599 23.2048 25.0508 23.9509 24.5007 24.501C23.9506 25.0511 23.2045 25.3601 22.4265 25.3601H21.0932C20.3187 25.3606 19.5758 25.6673 19.0266 26.2135L18.0932 27.1468C17.8206 27.4209 17.4965 27.6385 17.1396 27.7869C16.7826 27.9354 16.3998 28.0118 16.0132 28.0118C15.6266 28.0118 15.2438 27.9354 14.8869 27.7869C14.5299 27.6385 14.2058 27.4209 13.9332 27.1468L12.9999 26.2135C12.4507 25.6673 11.7077 25.3606 10.9332 25.3601H9.59988C8.82191 25.3601 8.07581 25.0511 7.5257 24.501C6.9756 23.9509 6.66655 23.2048 6.66655 22.4268V21.0935C6.66611 20.3189 6.35935 19.576 5.81322 19.0268L4.87988 18.0935C4.60575 17.8209 4.38821 17.4968 4.23976 17.1398C4.09131 16.7828 4.01489 16.4001 4.01489 16.0135C4.01489 15.6269 4.09131 15.2441 4.23976 14.8871C4.38821 14.5302 4.60575 14.2061 4.87988 13.9335L5.81322 13.0001C6.35935 12.4509 6.66611 11.708 6.66655 10.9335V9.60013Z" stroke="#1946BB" stroke-width="2" stroke-linecap="round" stroke-linejoin="round"/>
<path d="M12 16.0002L14.6667 18.6668L20 13.3335" stroke="#1946BB" stroke-width="2" stroke-linecap="round" stroke-linejoin="round"/>
</g>
<defs>
<clipPath id="clip0_2485_2682">
<rect width="32" height="32" fill="white"/>
</clipPath>
</defs>
</svg>
